#!OML:ASF X:\für Bonn\!DataBase\2005_08_11_Bastian_Final\c3d\Bastian.ASF
:FULLY-SPECIFIED
:DEGREES
48
root -2.14653 16.8745 6.05367 143.88 -24.1017 -169.809
lowerback 42.663 -7.22834 0.423596
upperback 12.8772 -13.8434 2.57019
thorax -4.7487 -8.99946 7.96989
lowerneck -10.0926 -6.81431 -7.38231
upperneck -5.05838 -7.72757 11.8919
head 0.92792 -3.35714 4.45626
rclavicle 4.9895e-014 -5.36719e-015
rhumerus -45.1186 38.6312 -99.8211
rradius 42.2596
rwrist -32.5226
rhand -35.0402 3.78175
rfingers 7.12502
rthumb -8.18358 -26.0398
lclavicle 4.9895e-014 -5.36719e-015
lhumerus 49.3646 -26.0398 78.7955
lradius 100.607
lwrist -19.0998
lhand -59.8003 -11.9253
lfingers 7.12502
lthumb -31.9617 15.2883
rfemur -80.9971 -10.6454 28.6584
rtibia 131.836
rfoot -1.37172 -4.63728
rtoes -2.39456
lfemur 20.21 -5.41299 -15.728
ltibia 33.3618
lfoot -12.6839 -8.43645
ltoes -3.20578
49
root -2.15652 16.8513 6.05183 143.323 -24.0183 -169.508
lowerback 43.2206 -7.29524 0.568345
upperback 12.9945 -13.9955 2.64895
thorax -4.75257 -9.13691 8.08822
lowerneck -10.1145 -6.77644 -7.35552
upperneck -5.08553 -7.67437 11.8825
head 0.91689 -3.33054 4.45224
rclavicle -1.43125e-014 4.47266e-015
rhumerus -44.8096 39.0621 -99.6664
rradius 42.333
rwrist -32.3682
rhand -34.9053 3.80542
rfingers 7.12502
rthumb -8.0534 -26.0211
lclavicle -1.43125e-014 4.47266e-015
lhumerus 49.8112 -25.8796 78.7369
lradius 101.111
lwrist -19.2343
lhand -59.8335 -12.1787
lfingers 7.12502
lthumb -31.9933 15.0286
rfemur -82.5826 -9.90655 29.4026
rtibia 132.403
rfoot -1.32352 -4.9604
rtoes -3.19717
lfemur 20.5364 -5.61801 -15.5793
ltibia 33.6861
lfoot -12.9076 -8.36161
ltoes -3.03818
50
root -2.16565 16.8298 6.04914 142.792 -23.954 -169.26
lowerback 43.7463 -7.33644 0.661366
upperback 13.117 -14.1371 2.73005
thorax -4.73122 -9.27259 8.22456
lowerneck -10.1021 -6.74916 -7.37865
upperneck -5.17324 -7.62483 11.9051
head 0.886676 -3.30536 4.46762
rclavicle 4.87022e-015 4.56211e-014
rhumerus -44.4245 39.4784 -99.4635
rradius 42.3669
rwrist -32.2859
rhand -34.7989 3.93133
rfingers 7.12502
rthumb -7.95069 -25.8991
lclavicle 4.87022e-015 4.56211e-014
lhumerus 50.2188 -25.7226 78.6827
lradius 101.615
lwrist -19.4167
lhand -59.8988 -12.3651
lfingers 7.12502
lthumb -32.0555 14.8296
rfemur -84.1361 -9.19061 30.0965
rtibia 132.93
rfoot -1.29319 -5.28115
rtoes -4.23774
lfemur 20.8804 -5.78053 -15.46
ltibia 33.9692
lfoot -13.1234 -8.32755
ltoes -2.94937
51
root -2.17579 16.8101 6.04691 142.269 -23.9092 -168.99
lowerback 44.231 -7.42434 0.798171
upperback 13.2399 -14.3158 2.78569
thorax -4.70323 -9.42214 8.32232
lowerneck -10.1058 -6.71636 -7.401
upperneck -5.22266 -7.57177 11.935
head 0.870249 -3.27801 4.48424
rclavicle -3.97569e-016 -4.37326e-014
rhumerus -44.0136 39.8856 -99.2813
rradius 42.3972
rwrist -32.2071
rhand -34.7387 4.04181
rfingers 7.12502
rthumb -7.89254 -25.7909
lclavicle -3.97569e-016 -4.37326e-014
lhumerus 50.5649 -25.5218 78.65
lradius 102.096
lwrist -19.6936
lhand -59.9624 -12.508
lfingers 7.12502
lthumb -32.116 14.6746
rfemur -85.6463 -8.5293 30.7751
rtibia 133.398
rfoot -1.25683 -5.61143
rtoes -5.30888
lfemur 21.1969 -5.96778 -15.3344
ltibia 34.2608
lfoot -13.3001 -8.2966
ltoes -2.5157
52
root -2.1856 16.7927 6.04532 141.755 -23.8745 -168.736
lowerback 44.6931 -7.50074 0.931131
upperback 13.3708 -14.4838 2.84502
thorax -4.65704 -9.56914 8.41752
lowerneck -10.098 -6.68508 -7.42561
upperneck -5.31974 -7.51393 11.9765
head 0.838283 -3.24767 4.50612
rclavicle 7.9812e-014 -2.18663e-015
rhumerus -43.5544 40.2715 -99.0602
rradius 42.4283
rwrist -32.1751
rhand -34.7066 4.14479
rfingers 7.12502
rthumb -7.86163 -25.689
lclavicle 7.9812e-014 -2.18663e-015
lhumerus 50.8904 -25.3345 78.6524
lradius 102.582
lwrist -19.9976
lhand -59.9856 -12.5905
lfingers 7.12502
lthumb -32.1382 14.5877
rfemur -87.0664 -7.8833 31.4168
rtibia 133.799
rfoot -1.25626 -5.95166
rtoes -6.32669
lfemur 21.5282 -6.11976 -15.203
ltibia 34.4914
lfoot -13.4472 -8.32139
ltoes -2.36465
53
root -2.19519 16.7781 6.0452 141.283 -23.8739 -168.518
lowerback 45.1291 -7.58063 1.02829
upperback 13.4931 -14.6652 2.89758
thorax -4.60604 -9.72066 8.52552
lowerneck -10.1178 -6.6561 -7.47271
upperneck -5.38308 -7.45934 12.0268
head 0.822135 -3.21763 4.53284
rclavicle 3.45885e-014 -1.82882e-014
rhumerus -43.0963 40.7017 -98.8356
rradius 42.4981
rwrist -32.2119
rhand -34.6652 4.26007
rfingers 7.12502
rthumb -7.8216 -25.5753
lclavicle 3.45885e-014 -1.82882e-014
lhumerus 51.192 -25.0813 78.6741
lradius 103.018
lwrist -20.3228
lhand -60.0097 -12.6303
lfingers 7.12502
lthumb -32.1611 14.5432
rfemur -88.4488 -7.29849 31.9934
rtibia 134.142
rfoot -1.2111 -6.25153
rtoes -6.9025
lfemur 21.8563 -6.23348 -15.0935
ltibia 34.6492
lfoot -13.5454 -8.37204
ltoes -2.09675
54
root -2.20484 16.7667 6.0464 140.826 -23.9037 -168.313
lowerback 45.5645 -7.67071 1.12399
upperback 13.591 -14.8477 2.94905
thorax -4.57966 -9.86672 8.63787
lowerneck -10.125 -6.62897 -7.53866
upperneck -5.4356 -7.4083 12.0833
head 0.808528 -3.18987 4.56439
rclavicle -3.47376e-014 5.96354e-015
rhumerus -42.6133 41.0864 -98.5871
rradius 42.5335
rwrist -32.268
rhand -34.6526 4.3326
rfingers 7.12502
rthumb -7.80945 -25.5032
lclavicle -3.47376e-014 5.96354e-015
lhumerus 51.4545 -24.8538 78.7143
lradius 103.459
lwrist -20.6424
lhand -60.0433 -12.5539
lfingers 7.12502
lthumb -32.193 14.6131
rfemur -89.7466 -6.76555 32.5226
rtibia 134.422
rfoot -1.14807 -6.54249
rtoes -7.30235
lfemur 22.1779 -6.34342 -14.9965
ltibia 34.7846
lfoot -13.6127 -8.4499
ltoes -1.74105
55
root -2.21374 16.7587 6.04972 140.401 -23.9593 -168.161
lowerback 45.9931 -7.75315 1.1669
upperback 13.6879 -15.041 2.97503
thorax -4.54773 -10.0165 8.75177
lowerneck -10.113 -6.58993 -7.53457
upperneck -5.5075 -7.34714 12.1017
head 0.780558 -3.15937 4.57444
rclavicle 4.02539e-015 4.03533e-014
rhumerus -42.1324 41.4028 -98.3453
rradius 42.5879
rwrist -32.287
rhand -34.6322 4.40822
rfingers 7.12502
rthumb -7.78975 -25.4283
lclavicle 4.02539e-015 4.03533e-014
lhumerus 51.6361 -24.653 78.7608
lradius 103.908
lwrist -20.8948
lhand -60.0254 -12.537
lfingers 7.12502
lthumb -32.176 14.6335
rfemur -90.9536 -6.27321 32.9843
rtibia 134.628
rfoot -1.06337 -6.85606
rtoes -7.10238
lfemur 22.4785 -6.42662 -14.9482
ltibia 34.9179
lfoot -13.6604 -8.56147
ltoes -1.32174
56
root -2.22275 16.7451 6.05164 140.003 -24.0218 -167.984
lowerback 46.3556 -7.84239 1.23325
upperback 13.799 -15.2337 3.00918
thorax -4.48296 -10.1677 8.85173
lowerneck -10.134 -6.56178 -7.53436
upperneck -5.59454 -7.29379 12.1397
head 0.75528 -3.13007 4.59008
rclavicle 4.06018e-014 2.40529e-014
rhumerus -41.6019 41.724 -98.0674
rradius 42.6458
rwrist -32.3416
rhand -34.5817 4.4423
rfingers 7.12502
rthumb -7.74105 -25.396
lclavicle 4.06018e-014 2.40529e-014
lhumerus 51.8286 -24.4595 78.7813
lradius 104.354
lwrist -21.0893
lhand -59.9987 -12.4494
lfingers 7.12502
lthumb -32.1506 14.7262
rfemur -91.9393 -5.81313 33.4338
rtibia 134.736
rfoot -1.08542 -7.1797
rtoes -6.58981
lfemur 22.7276 -6.51547 -14.8687
ltibia 35.068
lfoot -13.7323 -8.67645
ltoes -0.882581
